<svg id="Capa_1" enable-background="new 0 0 512.002 512.002" height="512" viewBox="0 0 512.002 512.002" width="512" xmlns="http://www.w3.org/2000/svg"><g><path d="m497.002 135.993h-16c0-3.472-.19-6.943-.586-10.415-4.336-38.394-34.922-71.235-72.759-78.091-30.234-5.464-60.879 4.409-81.826 26.455l-24.932 26.195c3.679 1.844 7.315 3.776 10.752 6.075 54.099 36.158 63.012 111.733 18.794 159.155-10.591 11.338-23.218 20.01-37.529 25.781-94.118 37.813-239.729 96.399-252.856 101.167l-37.085 49.713c-4.277 5.742-3.911 13.711.894 19.028 4.764 5.264 12.634 6.513 18.853 2.798l129.628-77.168c11.66-7.002 25.005-10.693 38.584-10.693h25.796l25.854 51.709c3.688 7.354 12.64 10.426 20.127 6.709 7.412-3.706 10.415-12.715 6.709-20.127l-19.146-38.291h5.728c6.819 0 13.555-.37 20.198-1.058l26.384 52.767c3.688 7.354 12.64 10.426 20.127 6.709 7.412-3.706 10.415-12.715 6.709-20.127l-22.625-45.249c82.646-22.407 143.901-97.804 144.207-187.368.029-8.394 6.035-15.044 13.857-15.63 1.804-.07 21.541-.035 32.143-.044 8.291 0 15-6.709 15-15s-6.709-15-15-15zm-91 0c-8.284 0-15-6.716-15-15 0-8.286 6.716-15 15-15s15 6.714 15 15c0 8.284-6.717 15-15 15z"/><path d="m30.236 364.216 251.459-100.884c10.21-4.116 19.219-10.298 26.807-18.428 31.238-33.49 25.688-87.55-13.535-113.76-29.985-20.054-72.29-14.15-98.364 13.813l-182.949 195.118c-4.79 5.142-5.376 12.92-1.392 18.721 3.979 5.815 11.465 8.024 17.974 5.42z"/></g></svg>